<?xml version="1.0" encoding="UTF-8" standalone="no"?>
<!-- Created with Inkscape (http://www.inkscape.org/) -->

<svg
   width="20.132624mm"
   height="20.538319mm"
   viewBox="0 0 20.132624 20.538319"
   version="1.1"
   id="svg1"
   xml:space="preserve"
   xmlns="http://www.w3.org/2000/svg"
   xmlns:svg="http://www.w3.org/2000/svg"><defs
     id="defs1" /><g
     id="layer5"
     transform="translate(-35.189583,53.18125)"><path
       id="path8-3-8"
       style="font-size:7.76111px;display:inline;fill:#5ad733;stroke-width:0.793749"
       d="m 45.51162,-49.380552 c -1.195208,0 -2.266919,0.278408 -3.213757,0.837158 -0.931325,0.54327 -1.668992,1.296497 -2.212268,2.258777 -0.543278,0.94686 -0.813904,2.034026 -0.813904,3.260266 0,0.16521 0.0071,0.326442 0.01705,0.486792 l -1.213879,-0.700732 -0.868164,1.553393 4.226098,2.409156 2.635498,-4.516004 -1.418518,-0.84956 -0.933276,1.615405 c -0.01536,-0.79098 0.139331,-1.49721 0.465088,-2.1177 0.325968,-0.63639 0.775983,-1.132802 1.350305,-1.489832 0.589845,-0.37254 1.250181,-0.559655 1.979724,-0.559655 0.729542,0 1.380598,0.179401 1.95492,0.536401 0.574319,0.357 1.024346,0.853411 1.350305,1.489831 0.32595,0.62088 0.48216,1.335355 0.466638,2.142505 0.0156,0.79164 -0.140667,1.504535 -0.466638,2.140955 -0.325959,0.62088 -0.775986,1.118842 -1.350305,1.491382 -0.574322,0.357 -1.225378,0.534851 -1.95492,0.534851 -0.729543,0 -1.389879,-0.177911 -1.979724,-0.534851 -0.04383,-0.03 -0.08378,-0.06087 -0.125574,-0.09147 -0.04719,0.0654 -0.09359,0.131488 -0.141076,0.196888 -0.10158,0.1398 -0.204301,0.279589 -0.306958,0.418579 -0.11001,0.1485 -0.219091,0.297624 -0.328663,0.446484 -0.11208,0.1527 -0.224789,0.304337 -0.336413,0.457337 -0.07839,0.1077 -0.156985,0.215091 -0.235645,0.322461 0.07899,0.0537 0.157349,0.108329 0.240296,0.158129 0.946838,0.5433 2.018549,0.815454 3.213757,0.815454 1.179685,0 2.234367,-0.272124 3.165698,-0.815454 0.946829,-0.55863 1.692245,-1.311916 2.235523,-2.258776 0.543276,-0.96236 0.815454,-2.055721 0.815454,-3.281971 0,-1.22624 -0.27219,-2.313406 -0.815454,-3.260266 -0.543278,-0.96228 -1.288694,-1.715507 -2.235523,-2.258777 -0.931331,-0.55881 -1.986013,-0.837158 -3.165698,-0.837158 z m 9.810587,6.468461 a 10.066312,10.269159 0 0 1 -10.066312,10.26916 10.066312,10.269159 0 0 1 -10.066312,-10.26916 10.066312,10.269159 0 0 1 10.066312,-10.269159 10.066312,10.269159 0 0 1 10.066312,10.269159 z" /></g></svg>
