<?xml version="1.0" encoding="UTF-8" standalone="no"?>
<!-- Created with Inkscape (http://www.inkscape.org/) -->

<svg
   width="72.828583mm"
   height="14.67826mm"
   viewBox="0 0 72.828583 14.67826"
   version="1.1"
   id="svg1"
   xml:space="preserve"
   xmlns="http://www.w3.org/2000/svg"
   xmlns:svg="http://www.w3.org/2000/svg"><defs
     id="defs1" /><g
     id="layer1-1-7-4"
     transform="translate(-46.424265,-115.91889)"
     style="fill:#f9f9f9;fill-opacity:1"><path
       id="path102-8-8-3"
       style="display:inline;fill:#f9f9f9;fill-opacity:1;fill-rule:nonzero;stroke:none;stroke-width:0.264583;stroke-dasharray:6.00001, 6.00001;stroke-dashoffset:0;stroke-opacity:1"
       d="m 99.655648,115.91897 c -1.67264,0 -3.05596,0.32904 -4.1491,0.98754 -1.08656,0.65852 -1.89966,1.54432 -2.43965,2.65721 -0.533403,1.1129 -0.799953,2.35459 -0.799953,3.72432 0,0.96144 0.14485,1.88008 0.434603,2.7559 0.28975,0.87583 0.734,1.65932 1.33325,2.35076 0.60584,0.68486 1.38286,1.22495 2.33112,1.62006 0.94827,0.38853 2.07798,0.58239 3.38843,0.58239 1.613382,0 2.966562,-0.31608 4.059702,-0.94826 1.09315,-0.63877 1.91646,-1.50787 2.46962,-2.60759 0.55316,-1.10631 0.8294,-2.36418 0.8294,-3.77342 0,-1.01411 -0.15131,-1.96559 -0.45423,-2.8546 -0.30292,-0.889 -0.76062,-1.66926 -1.37304,-2.34095 -0.61242,-0.67167 -1.38621,-1.19832 -2.32131,-1.58026 -0.9351,-0.38194 -2.0379,-0.5731 -3.308842,-0.5731 z m 13.858072,0 c -1.17875,0 -2.14963,0.18418 -2.91352,0.55295 -0.75729,0.36219 -1.32053,0.87265 -1.6893,1.53117 -0.36878,0.65851 -0.55294,1.42585 -0.55294,2.30167 0,0.84949 0.15778,1.54412 0.47387,2.08411 0.31609,0.5334 0.76733,0.96797 1.35341,1.30379 0.59267,0.33584 1.30399,0.61907 2.13372,0.84956 0.095,0.0255 0.29742,0.0516 0.53588,0.078 l 0.0692,-2.26292 0.80977,0.003 1.20664,2.44429 c 0.79012,0.0651 1.51527,0.13005 1.68207,0.1912 0.40169,0.14488 0.71132,0.31288 0.92863,0.50385 0.21732,0.19097 0.32556,0.43488 0.32556,0.73122 0,0.26999 -0.0689,0.49348 -0.20722,0.67128 -0.13829,0.17121 -0.33914,0.2999 -0.60255,0.3855 -0.1475,0.0492 -1.2492,0.0765 -2.25051,0.092 l 0.0186,0.005 -2.08049,-0.008 c -0.2889,-0.021 -0.59083,-0.0583 -0.91002,-0.11783 -0.49389,-0.0988 -0.99789,-0.23716 -1.51154,-0.41496 -0.50706,-0.1778 -0.99062,-0.39211 -1.45159,-0.64234 l -0.27698,3.4277 c 0.34901,0.16464 0.80024,0.32293 1.3534,0.47439 0.55315,0.14488 1.14278,0.26334 1.76837,0.35554 0.63218,0.0922 1.2412,0.13797 1.82728,0.13797 1.33021,0 2.41684,-0.1777 3.25975,-0.5333 0.8429,-0.3556 1.45839,-0.86606 1.84691,-1.53117 0.39511,-0.66511 0.59273,-1.45506 0.59273,-2.3704 0,-0.79681 -0.13839,-1.45859 -0.41496,-1.98541 -0.26999,-0.52681 -0.73093,-0.97158 -1.38286,-1.33377 -0.65194,-0.36877 -1.54096,-0.71123 -2.66702,-1.02732 -0.48731,-0.14487 -0.88901,-0.28275 -1.2051,-0.41445 -0.31609,-0.13171 -0.54979,-0.28354 -0.70125,-0.45475 -0.15146,-0.17122 -0.22737,-0.38499 -0.22737,-0.64182 0,-0.25682 0.0727,-0.46738 0.21756,-0.63201 0.14487,-0.16463 0.34249,-0.28685 0.59272,-0.36587 0.25683,-0.079 0.55299,-0.11833 0.88884,-0.11833 0.34243,0 0.72796,0.0426 1.156,0.12815 0.43462,0.0856 0.87887,0.21753 1.33325,0.39533 0.46097,0.17121 0.90897,0.385 1.34359,0.64182 l 0.27647,-3.46697 c -0.28316,-0.13171 -0.61916,-0.25342 -1.00769,-0.36535 -0.38195,-0.11853 -0.79334,-0.22084 -1.23455,-0.30645 -0.43462,-0.0922 -0.88262,-0.16437 -1.34359,-0.21705 -0.46096,-0.0527 -0.91543,-0.0791 -1.36322,-0.0791 z m -67.089455,0.30645 v 2.24224 2.4691 4.82038 2.39055 2.16317 h 4.00027 v -2.16317 -2.39055 -0.52349 h 1.06454 l 1.19734,2.15336 c 0.26341,0.46097 0.53048,0.93212 0.80047,1.41284 0.27658,0.4807 0.56305,0.98419 0.85938,1.51101 h 4.593 c -0.2239,-0.36219 -0.48075,-0.78005 -0.7705,-1.25418 -0.28975,-0.48072 -0.58915,-0.97179 -0.89865,-1.47226 -0.30292,-0.50048 -0.58939,-0.97111 -0.85938,-1.41232 l -1.13171,-1.84743 c 0.16725,-0.0593 0.33056,-0.12221 0.47955,-0.19741 0.70462,-0.3556 1.22155,-0.84938 1.55081,-1.48156 0.33585,-0.63218 0.50385,-1.36988 0.50385,-2.21279 0,-1.07995 -0.22077,-1.92592 -0.66198,-2.53834 -0.4412,-0.61243 -1.07984,-1.04375 -1.91616,-1.29398 -0.83631,-0.25024 -1.85027,-0.37517 -3.04219,-0.37517 h -2.11408 -2.0252 z m 13.41365,0 v 2.24224 2.47892 1.4919 1.37304 0.98754 c 0,1.19848 0.20085,2.23237 0.60255,3.10162 0.4017,0.86922 1.05378,1.5375 1.95595,2.00504 0.90217,0.46097 2.10404,0.69143 3.60547,0.69143 1.41581,0 2.57138,-0.23046 3.46697,-0.69143 0.90217,-0.46754 1.56719,-1.13258 1.99523,-1.99523 0.42803,-0.86925 0.64233,-1.90312 0.64233,-3.10162 v -0.9679 -1.39267 -1.50172 -2.47892 -2.24224 h -4.07003 v 2.24224 2.47892 3.66489 c 0,0.5795 -0.0689,1.07005 -0.20723,1.47175 -0.1317,0.39509 -0.34872,0.69451 -0.65163,0.89865 -0.29634,0.20415 -0.69157,0.30644 -1.18546,0.30644 -0.47413,0 -0.86614,-0.10229 -1.17564,-0.30644 -0.3095,-0.20414 -0.53997,-0.50356 -0.69143,-0.89865 -0.14488,-0.4017 -0.21704,-0.88902 -0.21704,-1.46193 v -3.67471 -2.47892 -2.24224 z m 15.60525,0 c -0.10536,0.79022 -0.20391,1.57047 -0.29611,2.34094 -0.0922,0.76388 -0.19074,1.57052 -0.2961,2.42001 l -0.60255,4.76095 c -0.10536,0.85607 -0.20443,1.65301 -0.29662,2.39055 -0.0856,0.73095 -0.17446,1.4552 -0.26665,2.17299 h 3.76359 c 0.10537,-0.8363 0.20392,-1.6365 0.29611,-2.40037 0.0922,-0.76389 0.17781,-1.48167 0.25683,-2.15335 l 0.34572,-2.81482 h 0.26665 l 1.08675,3.05201 c 0.1778,0.48072 0.35227,0.97127 0.52348,1.47175 0.1778,0.49388 0.35227,0.98444 0.52349,1.47174 0.17121,0.48072 0.33598,0.93842 0.49402,1.37304 h 2.67684 c 0.19756,-0.65852 0.40488,-1.35315 0.62219,-2.08411 0.22389,-0.73095 0.4479,-1.47512 0.67179,-2.23242 l 0.90847,-3.05201 h 0.26717 l 0.35553,2.84479 c 0.079,0.66511 0.16464,1.3759 0.25683,2.1332 0.0988,0.75071 0.19733,1.54766 0.29611,2.39055 h 3.87212 c -0.0922,-0.73096 -0.18752,-1.4552 -0.28629,-2.17299 -0.0922,-0.72437 -0.19126,-1.51485 -0.29662,-2.37091 l -0.62219,-4.77077 c -0.11195,-0.86925 -0.21748,-1.6861 -0.31626,-2.44998 -0.0988,-0.76389 -0.20056,-1.53716 -0.30592,-2.32079 h -4.04989 c -0.25682,0.73095 -0.49375,1.39922 -0.71106,2.00504 -0.21073,0.60584 -0.42826,1.21809 -0.65216,1.8371 l -1.29398,3.64474 h -0.25683 l -1.38286,-3.65456 c -0.23048,-0.61242 -0.46418,-1.22791 -0.70125,-1.84691 -0.23048,-0.6256 -0.47763,-1.28738 -0.74104,-1.98541 z m 24.261573,3.01274 c 0.487302,0 0.925092,0.10178 1.313622,0.30592 0.38852,0.20414 0.71806,0.49061 0.98805,0.85938 0.27658,0.36218 0.48713,0.79027 0.632,1.28416 0.15146,0.4873 0.22738,1.01394 0.22738,1.58026 0,0.54658 -0.0695,1.06351 -0.20774,1.55081 -0.13171,0.48072 -0.33255,0.90881 -0.60255,1.28416 -0.26999,0.36878 -0.59901,0.65847 -0.98753,0.8692 -0.38853,0.21073 -0.843,0.31626 -1.363232,0.31626 -0.52023,0 -0.98116,-0.10553 -1.38286,-0.31626 -0.39511,-0.21073 -0.72788,-0.50042 -0.99787,-0.8692 -0.26342,-0.37535 -0.46426,-0.80344 -0.60255,-1.28416 -0.13829,-0.4873 -0.20722,-1.00423 -0.20722,-1.55081 0,-0.55315 0.0727,-1.07332 0.21755,-1.56063 0.14488,-0.49387 0.35219,-0.92519 0.62219,-1.29397 0.26999,-0.36877 0.60224,-0.65524 0.99736,-0.85938 0.39511,-0.21073 0.84634,-0.31574 1.3534,-0.31574 z m -49.280203,0.0889 h 1.64951 c 0.20414,0 0.39853,0.0259 0.58291,0.0785 0.18439,0.0527 0.34916,0.14204 0.49403,0.26716 0.14487,0.12512 0.25688,0.28937 0.3359,0.49351 0.079,0.19756 0.11834,0.44794 0.11834,0.75086 0,0.44779 -0.0727,0.79674 -0.21756,1.04697 -0.13829,0.24366 -0.33914,0.41488 -0.60255,0.51366 -0.2634,0.0922 -0.57251,0.13849 -0.92811,0.13849 h -1.43247 v -1.01751 z m 62.391555,8.88524 1.85156,0.26976 -0.65681,1.66656 -1.07952,-0.0455 z" /></g></svg>
