<?xml version="1.0" encoding="UTF-8" standalone="no"?>
<!-- Created with Inkscape (http://www.inkscape.org/) -->

<svg
   width="28.621304mm"
   height="28.621429mm"
   viewBox="0 0 28.621304 28.62143"
   version="1.1"
   id="svg1"
   xml:space="preserve"
   xmlns="http://www.w3.org/2000/svg"
   xmlns:svg="http://www.w3.org/2000/svg"><defs
     id="defs1" /><g
     id="g15366-6-6-2-7"
     transform="matrix(1.422805,0,0,1.422805,75.327652,-38.908104)"><path
       id="path13976-2-1-0-4"
       style="fill:#f9f9f9;fill-opacity:1;stroke-width:9.55842;paint-order:markers stroke fill"
       d="m -162.08398,103.35547 a 38.014465,38.014465 0 0 0 -0.3125,0.0117 38.014466,38.014466 0 0 1 0.3125,-0.01 38.014466,38.014466 0 0 1 2.5371,0.0859 38.014465,38.014465 0 0 0 -2.5371,-0.0879 z m 2.5371,0.0879 a 38.014465,38.014465 0 0 1 0.0996,0.006 38.014466,38.014466 0 0 0 -0.0996,-0.006 z m 0.0996,0.006 a 38.014466,38.014466 0 0 1 2.47266,0.2539 38.014465,38.014465 0 0 0 -2.47266,-0.2539 z m 2.47266,0.2539 a 38.014465,38.014465 0 0 1 0.14844,0.0215 38.014466,38.014466 0 0 0 -0.14844,-0.0215 z m 0.14844,0.0215 a 38.014466,38.014466 0 0 1 2.47656,0.42773 38.014465,38.014465 0 0 0 -2.47656,-0.42773 z m 2.47656,0.42773 a 38.014466,38.014466 0 0 1 2.43164,0.5918 38.014465,38.014465 0 0 0 -2.43164,-0.5918 z m 2.43164,0.5918 a 38.014465,38.014465 0 0 1 0.16602,0.0449 38.014466,38.014466 0 0 0 -0.16602,-0.0449 z m 0.16602,0.0449 a 38.014466,38.014466 0 0 1 2.31445,0.73438 38.014465,38.014465 0 0 0 -2.31445,-0.73438 z m 2.31445,0.73438 a 38.014465,38.014465 0 0 1 0.19922,0.0723 38.014466,38.014466 0 0 0 -0.19922,-0.0723 z m 0.19922,0.0723 a 38.014466,38.014466 0 0 1 2.29101,0.9043 38.014465,38.014465 0 0 0 -2.29101,-0.9043 z m -13.1582,-2.22851 a 38.014466,38.014466 0 0 0 -2.26563,0.0859 38.014465,38.014465 0 0 1 2.26563,-0.0859 z m -2.26563,0.0859 a 38.014465,38.014465 0 0 0 -1.06641,0.0996 38.014466,38.014466 0 0 1 1.06641,-0.0996 z m -1.06641,0.0996 a 38.014466,38.014466 0 0 0 -1.49023,0.16797 38.014465,38.014465 0 0 1 1.49023,-0.16797 z m -1.49023,0.16797 a 38.014465,38.014465 0 0 0 -1.27734,0.20118 38.014466,38.014466 0 0 1 1.27734,-0.20118 z m -1.27734,0.20118 a 38.014466,38.014466 0 0 0 -1.20703,0.22851 38.014465,38.014465 0 0 1 0.32031,-0.0606 37.982415,37.982415 0 0 1 0.39648,-0.0742 38.014465,38.014465 0 0 1 0.49024,-0.0937 z m -0.49024,0.0937 a 38.014465,38.014465 0 0 0 -0.39648,0.0742 37.982415,37.982415 0 0 0 -1.89258,0.41602 38.014465,38.014465 0 0 0 -0.62695,0.16797 37.982415,37.982415 0 0 0 -1.75586,0.5 38.014466,38.014466 0 0 0 -0.006,0.002 38.014465,38.014465 0 0 0 -26.43555,36.19531 38.014465,38.014465 0 0 0 32.20703,37.5625 37.982415,37.982415 0 0 0 0.9375,0.11719 38.014465,38.014465 0 0 0 1.21289,0.13672 37.982415,37.982415 0 0 0 3.46289,0.16602 37.982415,37.982415 0 0 0 37.98047,-37.98438 37.982415,37.982415 0 0 0 -37.98047,-37.98047 v 0.004 a 37.982415,37.982415 0 0 0 -6.70703,0.62304 z m 3.24414,75.17188 a 37.982415,37.982415 0 0 1 -1.21289,-0.13672 38.014465,38.014465 0 0 1 -0.23047,-0.0254 38.014466,38.014466 0 0 0 1.77539,0.19922 38.014465,38.014465 0 0 1 -0.33203,-0.0371 z m 0.33203,0.0371 a 38.014465,38.014465 0 0 0 0.9043,0.0703 38.014466,38.014466 0 0 1 -0.9043,-0.0703 z m 0.9043,0.0703 a 38.014466,38.014466 0 0 0 2.42188,0.0899 38.014465,38.014465 0 0 1 -2.42188,-0.0899 z m 2.42188,0.0899 a 38.014466,38.014466 0 0 0 2.69336,-0.0996 38.014465,38.014465 0 0 1 -2.69336,0.0996 z m 2.69336,-0.0996 a 38.014465,38.014465 0 0 0 1.13867,-0.11719 38.014466,38.014466 0 0 1 -1.13867,0.11719 z m 1.13867,-0.11719 a 38.014466,38.014466 0 0 0 1.5625,-0.17578 38.014465,38.014465 0 0 1 -1.5625,0.17578 z m 1.5625,-0.17578 a 38.014465,38.014465 0 0 0 1.22656,-0.21289 38.014466,38.014466 0 0 1 -1.22656,0.21289 z m 1.22656,-0.21289 a 38.014466,38.014466 0 0 0 1.46484,-0.27735 38.014465,38.014465 0 0 1 -1.46484,0.27735 z m 1.46484,-0.27735 a 38.014465,38.014465 0 0 0 1.19922,-0.29101 38.014466,38.014466 0 0 1 -1.19922,0.29101 z m 1.19922,-0.29101 a 38.014466,38.014466 0 0 0 1.44141,-0.38672 38.014465,38.014465 0 0 1 -1.44141,0.38672 z m 1.44141,-0.38672 a 38.014465,38.014465 0 0 0 1.20508,-0.38086 38.014466,38.014466 0 0 1 -1.20508,0.38086 z m 1.20508,-0.38086 a 38.014466,38.014466 0 0 0 1.38476,-0.48438 38.014465,38.014465 0 0 1 -1.38476,0.48438 z m 1.38476,-0.48438 a 38.014465,38.014465 0 0 0 1.19141,-0.4707 38.014466,38.014466 0 0 1 -1.19141,0.4707 z m 1.19141,-0.4707 a 38.014466,38.014466 0 0 0 1.30469,-0.57031 38.014465,38.014465 0 0 1 -1.30469,0.57031 z m 1.30469,-0.57031 a 38.014465,38.014465 0 0 0 1.19531,-0.56836 38.014466,38.014466 0 0 1 -1.19531,0.56836 z m 1.19531,-0.56836 a 38.014466,38.014466 0 0 0 1.23828,-0.6543 38.014465,38.014465 0 0 1 -1.23828,0.6543 z m 1.23828,-0.6543 a 38.014465,38.014465 0 0 0 1.13867,-0.63867 38.014466,38.014466 0 0 1 -1.13867,0.63867 z m 1.13867,-0.63867 a 38.014466,38.014466 0 0 0 1.2793,-0.80664 38.014465,38.014465 0 0 1 -1.2793,0.80664 z m 1.2793,-0.80664 a 38.014465,38.014465 0 0 0 0.99804,-0.6543 38.014466,38.014466 0 0 1 -0.99804,0.6543 z m 0.99804,-0.6543 a 38.014466,38.014466 0 0 0 1.29493,-0.95508 38.014465,38.014465 0 0 1 -1.29493,0.95508 z m 1.29493,-0.95508 a 38.014465,38.014465 0 0 0 0.89062,-0.67578 38.014466,38.014466 0 0 1 -0.89062,0.67578 z m 0.89062,-0.67578 a 38.014466,38.014466 0 0 0 1.60547,-1.38281 38.014465,38.014465 0 0 1 -1.60547,1.38281 z m 1.60547,-1.38281 a 38.014465,38.014465 0 0 0 0.43359,-0.37695 38.014466,38.014466 0 0 1 -0.43359,0.37695 z m 0.43359,-0.37695 a 38.014466,38.014466 0 0 0 1.92188,-1.91992 38.014465,38.014465 0 0 1 -1.92188,1.91992 z m 1.92188,-1.91992 a 38.014465,38.014465 0 0 0 0.60742,-0.69532 38.014466,38.014466 0 0 1 -0.60742,0.69532 z m 0.60742,-0.69532 a 38.014466,38.014466 0 0 0 1.18164,-1.37304 38.014465,38.014465 0 0 1 -1.18164,1.37304 z m 1.18164,-1.37304 a 38.014465,38.014465 0 0 0 0.6543,-0.86524 38.014466,38.014466 0 0 1 -0.6543,0.86524 z m 0.6543,-0.86524 a 38.014466,38.014466 0 0 0 0.97851,-1.32617 38.014465,38.014465 0 0 1 -0.97851,1.32617 z m 0.97851,-1.32617 a 38.014465,38.014465 0 0 0 0.63282,-0.96484 38.014466,38.014466 0 0 1 -0.63282,0.96484 z m 0.63282,-0.96484 a 38.014466,38.014466 0 0 0 0.83203,-1.32032 38.014465,38.014465 0 0 1 -0.83203,1.32032 z m 0.83203,-1.32032 a 38.014465,38.014465 0 0 0 0.60351,-1.07617 38.014466,38.014466 0 0 1 -0.60351,1.07617 z m 0.60351,-1.07617 a 38.014466,38.014466 0 0 0 0.69922,-1.32226 38.014465,38.014465 0 0 1 -0.69922,1.32226 z m 0.69922,-1.32226 a 38.014465,38.014465 0 0 0 0.52735,-1.10938 38.014466,38.014466 0 0 1 -0.52735,1.10938 z m 0.52735,-1.10938 a 38.014466,38.014466 0 0 0 0.60351,-1.38281 38.014465,38.014465 0 0 1 -0.60351,1.38281 z m 0.60351,-1.38281 a 38.014465,38.014465 0 0 0 0.45899,-1.16602 38.014466,38.014466 0 0 1 -0.45899,1.16602 z m 0.45899,-1.16602 a 38.014466,38.014466 0 0 0 0.47851,-1.36718 38.014465,38.014465 0 0 1 -0.47851,1.36718 z m 0.47851,-1.36718 a 38.014465,38.014465 0 0 0 0.38867,-1.22071 38.014466,38.014466 0 0 1 -0.38867,1.22071 z m 0.38867,-1.22071 a 38.014466,38.014466 0 0 0 0.39063,-1.46289 38.014465,38.014465 0 0 1 -0.39063,1.46289 z m 0.39063,-1.46289 a 38.014465,38.014465 0 0 0 0.28125,-1.15234 38.014466,38.014466 0 0 1 -0.28125,1.15234 z m 0.28125,-1.15234 a 38.014466,38.014466 0 0 0 0.30273,-1.59375 38.014465,38.014465 0 0 1 -0.30273,1.59375 z m 0.30273,-1.59375 a 38.014465,38.014465 0 0 0 0.1875,-1.08789 38.014466,38.014466 0 0 1 -0.1875,1.08789 z m 0.1875,-1.08789 a 38.014466,38.014466 0 0 0 0.20118,-1.79688 38.014465,38.014465 0 0 1 -0.20118,1.79688 z m 0.20118,-1.79688 a 38.014465,38.014465 0 0 0 0.0937,-0.9082 38.014466,38.014466 0 0 1 -0.0937,0.9082 z m 0.0937,-0.9082 a 38.014466,38.014466 0 0 0 0.10157,-2.72266 38.014465,38.014465 0 0 1 -0.10157,2.72266 z m 0.10157,-2.72266 a 38.014465,38.014465 0 0 0 -0.084,-2.4707 38.014466,38.014466 0 0 1 0.084,2.4707 z m -0.084,-2.4707 a 38.014466,38.014466 0 0 0 -0.0137,-0.22266 38.014465,38.014465 0 0 1 0.0137,0.22266 z m -0.0137,-0.22266 a 38.014465,38.014465 0 0 0 -0.24805,-2.39843 38.014466,38.014466 0 0 1 0.24805,2.39843 z m -0.24805,-2.39843 a 38.014466,38.014466 0 0 0 -0.0273,-0.20313 38.014465,38.014465 0 0 1 0.0273,0.20313 z m -0.0273,-0.20313 a 38.014465,38.014465 0 0 0 -0.42187,-2.43945 38.014466,38.014466 0 0 1 0.42187,2.43945 z m -0.42187,-2.43945 a 38.014465,38.014465 0 0 0 -0.60743,-2.48828 38.014466,38.014466 0 0 1 0.60743,2.48828 z m -42.32032,45.38867 a 38.014466,38.014466 0 0 1 -0.70703,-0.0918 38.014465,38.014465 0 0 0 0.70703,0.0918 z m -6.47265,-73.85156 a 38.014466,38.014466 0 0 1 1.55468,-0.44727 38.014465,38.014465 0 0 0 -1.55468,0.44727 z m 1.55468,-0.44727 a 38.014465,38.014465 0 0 1 0.20118,-0.0527 37.982415,37.982415 0 0 1 0.62695,-0.16797 38.014465,38.014465 0 0 1 0.16211,-0.0449 38.014466,38.014466 0 0 0 -0.99024,0.26562 z m 0.99024,-0.26562 a 38.014466,38.014466 0 0 1 1.41016,-0.31055 38.014465,38.014465 0 0 0 -1.41016,0.31055 z m 24.17773,2.04492 a 38.014466,38.014466 0 0 1 2.28125,1.08594 38.014465,38.014465 0 0 0 -2.28125,-1.08594 z m 2.28125,1.08594 a 38.014465,38.014465 0 0 1 0.11328,0.0586 38.014466,38.014466 0 0 0 -0.11328,-0.0586 z m 0.11328,0.0586 a 38.014466,38.014466 0 0 1 2.16016,1.21289 38.014465,38.014465 0 0 0 -2.16016,-1.21289 z m 2.16016,1.21289 a 38.014465,38.014465 0 0 1 0.11914,0.0742 38.014466,38.014466 0 0 0 -0.11914,-0.0742 z m 0.11914,0.0742 a 38.014466,38.014466 0 0 1 2.03711,1.33594 38.014465,38.014465 0 0 0 -2.03711,-1.33594 z m 2.03711,1.33594 a 38.014465,38.014465 0 0 1 0.0996,0.0684 38.014466,38.014466 0 0 0 -0.0996,-0.0684 z m 0.0996,0.0684 a 38.014466,38.014466 0 0 1 1.96875,1.49414 38.014465,38.014465 0 0 0 -1.96875,-1.49414 z m 1.96875,1.49414 a 38.014465,38.014465 0 0 1 0.11914,0.0957 38.014466,38.014466 0 0 0 -0.11914,-0.0957 z m 0.11914,0.0957 a 38.014466,38.014466 0 0 1 1.85547,1.61719 38.014465,38.014465 0 0 0 -1.85547,-1.61719 z m 1.85547,1.61719 a 38.014465,38.014465 0 0 1 0.11523,0.10937 38.014466,38.014466 0 0 0 -0.11523,-0.10937 z m 0.11523,0.10937 a 38.014466,38.014466 0 0 1 1.73829,1.74024 38.014465,38.014465 0 0 0 -1.73829,-1.74024 z m 1.7793,1.78321 a 38.014466,38.014466 0 0 1 1.625,1.86328 38.014465,38.014465 0 0 0 -1.625,-1.86328 z m 1.625,1.86328 a 38.014465,38.014465 0 0 1 0.125,0.15429 38.014466,38.014466 0 0 0 -0.125,-0.15429 z m 0.125,0.15429 a 38.014466,38.014466 0 0 1 1.49609,1.97071 38.014465,38.014465 0 0 0 -1.49609,-1.97071 z m 1.5332,2.0254 a 38.014466,38.014466 0 0 1 1.35352,2.06445 38.014465,38.014465 0 0 0 -1.35352,-2.06445 z m 1.35352,2.06445 a 38.014465,38.014465 0 0 1 0.0742,0.12109 38.014466,38.014466 0 0 0 -0.0742,-0.12109 z m 0.0742,0.12109 a 38.014466,38.014466 0 0 1 1.20898,2.14844 38.014465,38.014465 0 0 0 -1.20898,-2.14844 z m 1.20898,2.14844 a 38.014465,38.014465 0 0 1 0.0684,0.13476 38.014466,38.014466 0 0 0 -0.0684,-0.13476 z m 0.0684,0.13476 a 38.014466,38.014466 0 0 1 1.08008,2.26758 38.014465,38.014465 0 0 0 -1.08008,-2.26758 z m 1.08594,2.28516 a 38.014466,38.014466 0 0 1 0.93164,2.36133 38.014465,38.014465 0 0 0 -0.93164,-2.36133 z m 0.95703,2.42969 a 38.014466,38.014466 0 0 1 0.76758,2.41992 38.014465,38.014465 0 0 0 -0.76758,-2.41992 z"
       transform="scale(0.26458333)" /><path
       id="path1-2-7-9-8-6-5"
       style="fill:#aa0000;fill-opacity:1;stroke-width:0.529166;stroke-dasharray:12, 12"
       d="m -42.936353,27.355957 a 10.049514,10.049514 0 0 0 -8.806698,5.26068 c 0.433852,0.40632 0.923236,0.77252 1.477946,1.09036 1.185339,0.67168 2.60798,1.23814 4.267439,1.69912 0.19,0.051 0.594848,0.1032 1.071768,0.156 l 0.1385,-4.52684 1.619538,0.006 2.41329,4.88858 c 1.58024,0.1302 3.030536,0.2601 3.364136,0.3824 0.80338,0.28976 1.42263,0.62576 1.85725,1.0077 0.43464,0.38194 0.651124,0.86976 0.651124,1.46244 0,0.53998 -0.1378,0.98696 -0.414446,1.34256 -0.27658,0.342415 -0.678274,0.599795 -1.205094,0.770995 -0.295,0.0984 -2.498396,0.153 -4.501016,0.184 l 0.0372,0.01 -4.160986,-0.016 c -0.5778,-0.042 -1.181664,-0.1176 -1.820043,-0.23666 -0.98778,-0.1976 -1.995773,-0.47434 -3.023073,-0.829935 -1.014119,-0.3556 -1.981241,-0.7842 -2.90318,-1.28466 l -0.0094,0.1198 a 10.049514,10.049514 0 0 0 9.945647,8.611359 10.049514,10.049514 0 0 0 10.048994,-10.050039 10.049514,10.049514 0 0 0 -10.048994,-10.049 z m -2.067059,15.390279 3.703133,0.5395 -1.313614,3.33314 -2.159043,-0.091 z" /><path
       style="fill:#f9f9f9;fill-opacity:1;stroke-width:2.529;paint-order:markers stroke fill"
       d="m -49.138038,29.527665 a 10.057994,10.057994 0 0 0 -0.02274,0.01757 10.049514,10.049514 0 0 1 0.02274,-0.01757 z"
       id="path15174-1-7-1-2" /><path
       style="fill:#f9f9f9;fill-opacity:1;stroke-width:2.529;paint-order:markers stroke fill"
       d="m -48.471929,29.044489 a 10.057994,10.057994 0 0 0 -0.09767,0.06356 10.049514,10.049514 0 0 1 0.09767,-0.06356 z"
       id="path15172-2-9-5-5" /><path
       style="fill:#f9f9f9;fill-opacity:1;stroke-width:2.529;paint-order:markers stroke fill"
       d="m -47.712286,28.587154 a 10.057994,10.057994 0 0 0 -0.244427,0.133326 10.049514,10.049514 0 0 1 0.244427,-0.133326 z"
       id="path15170-7-2-5-4" /><path
       style="fill:#f9f9f9;fill-opacity:1;stroke-width:2.529;paint-order:markers stroke fill"
       d="m -46.922669,28.200097 a 10.057994,10.057994 0 0 0 -0.389641,0.1757 10.049514,10.049514 0 0 1 0.389641,-0.1757 z"
       id="path15168-0-0-4-7" /><path
       style="fill:#f9f9f9;fill-opacity:1;stroke-width:2.529;paint-order:markers stroke fill"
       d="m -46.052954,27.864201 a 10.057994,10.057994 0 0 0 -0.585494,0.211873 10.049514,10.049514 0 0 1 0.585494,-0.211873 z"
       id="path15166-9-2-7-4" /></g></svg>
